<?xml version="1.0" encoding="UTF-8"?>
<svg width="200px" height="101px" viewBox="0 0 200 101" version="1.1" xmlns="http://www.w3.org/2000/svg" xmlns:xlink="http://www.w3.org/1999/xlink">
    <!-- Generator: Sketch 53.2 (72643) - https://sketchapp.com -->
    <title>brand</title>
    <desc>Created with Sketch.</desc>
    <defs>
        <polygon id="path-1" points="1.6059 2.6436 67.3659 2.6436 67.3659 67.032 1.6059 67.032"></polygon>
        <polygon id="path-3" points="0 100.032 199.533 100.032 199.533 0 0 0"></polygon>
        <polygon id="path-5" points="0 100.032 199.533 100.032 199.533 0 0 0"></polygon>
        <polygon id="path-7" points="0 100.032 199.533 100.032 199.533 0 0 0"></polygon>
    </defs>
    <g id="Page-1" stroke="none" stroke-width="1" fill="none" fill-rule="evenodd">
        <g id="Artboard" transform="translate(-68.000000, -45.000000)">
            <g id="brand" transform="translate(68.000000, 45.000000)">
                <path d="M46.5822,57.3222 C44.5182,55.4982 42.5322,54.1662 40.6272,53.3322 C38.7192,52.5012 36.7152,52.0812 34.6122,52.0812 C30.3972,52.0812 27.0522,53.4732 24.5742,56.2542 C22.0902,59.0292 20.8482,62.8032 20.8482,67.5672 C20.8482,72.1752 22.1412,75.8502 24.7212,78.5892 C27.3012,81.3312 30.7752,82.6992 35.1432,82.6992 C37.2882,82.6992 39.3042,82.2702 41.1912,81.4182 C43.0782,80.5632 44.8782,79.2432 46.5822,77.4582 L49.2672,94.0782 C46.7262,95.5092 41.5002,98.3442 38.9592,99.0192 C36.4152,99.6972 33.7962,100.0302 31.0962,100.0302 C21.8412,100.0302 14.3472,97.0632 8.6082,91.1292 C2.8722,85.1922 0.0012,77.3772 0.0012,67.6872 C0.0012,58.2762 2.9292,50.5842 8.7882,44.6082 C14.6442,38.6322 22.1592,35.6412 31.3332,35.6412 C34.3902,35.6412 37.1472,35.9382 39.6132,36.5352 C42.0762,37.1322 46.6092,39.3822 48.7902,40.6902 L46.5822,57.3222 Z" id="Fill-1" fill="#FFFFFF" fill-rule="nonzero"></path>
                <g id="Fill-3-Clipped" transform="translate(51.000000, 32.999100)">
                    <mask id="mask-2" fill="white">
                        <use xlink:href="#path-1"></use>
                    </mask>
                    <g id="path-1"></g>
                    <path d="M46.4589,26.8866 C46.0599,23.4696 44.7609,20.7306 42.5559,18.6666 C40.3539,16.6026 37.6419,15.5706 34.4229,15.5706 C30.9729,15.5706 28.2189,16.5126 26.1759,18.3966 C24.1299,20.2836 22.7709,23.1126 22.0959,26.8866 L46.4589,26.8866 Z M67.3659,38.8596 L21.6189,38.8596 C21.6579,43.5036 22.8489,47.0886 25.1919,49.6116 C27.5349,52.1346 30.8499,53.3946 35.1399,53.3946 C38.3589,53.3946 41.0679,52.7886 43.2729,51.5736 C45.4749,50.3676 47.1489,48.5706 48.3039,46.1856 L64.2699,52.6176 C62.3619,57.2256 58.9869,60.7806 54.1419,63.2826 C49.2939,65.7816 43.3599,67.0326 36.3339,67.0326 C25.8489,67.0326 17.4369,64.1256 11.1039,58.3086 C4.7709,52.4886 1.6059,44.8176 1.6059,35.2866 C1.6059,25.9146 4.7709,18.1296 11.1039,11.9376 C17.4369,5.7396 25.4499,2.6436 35.1399,2.6436 C45.1059,2.6436 52.9689,5.7786 58.7289,12.0546 C64.4889,18.3276 67.3659,26.9256 67.3659,37.8456 L67.3659,38.8596 Z" id="Fill-3" fill="#FFFFFF" fill-rule="nonzero" mask="url(#mask-2)"></path>
                </g>
                <g id="Fill-7-Clipped" transform="translate(0.000000, -0.000900)">
                    <mask id="mask-4" fill="white">
                        <use xlink:href="#path-3"></use>
                    </mask>
                    <g id="path-3"></g>
                    <path d="M199.5324,92.2302 C199.5324,95.9352 196.5324,98.9382 192.8244,98.9382 C189.1194,98.9382 186.1194,95.9352 186.1194,92.2302 C186.1194,88.5282 189.1194,85.5252 192.8244,85.5252 C196.5324,85.5252 199.5324,88.5282 199.5324,92.2302" id="Fill-7" fill="#F7B500" fill-rule="nonzero" mask="url(#mask-4)"></path>
                </g>
                <g id="Fill-8-Clipped" transform="translate(0.000000, -0.000900)">
                    <mask id="mask-6" fill="white">
                        <use xlink:href="#path-5"></use>
                    </mask>
                    <g id="path-3"></g>
                    <path d="M155.4786,82.5243 C147.4506,82.5243 140.9436,76.0143 140.9436,67.9863 C140.9436,59.9613 147.4506,53.4573 155.4786,53.4573 C163.5066,53.4573 170.0166,59.9613 170.0166,67.9863 C170.0166,76.0143 163.5066,82.5243 155.4786,82.5243 M155.4786,34.7043 C137.0976,34.7043 122.1966,49.6053 122.1966,67.9863 C122.1966,79.9923 128.5506,90.5103 138.0816,96.3663 C141.7986,90.0843 148.6446,85.8663 156.4746,85.8663 C163.9176,85.8663 170.4666,89.6733 174.2916,95.4453 C183.0306,89.4483 188.7636,79.3893 188.7636,67.9863 C188.7636,49.6053 173.8596,34.7043 155.4786,34.7043" id="Fill-8" fill="#FFFFFF" fill-rule="nonzero" mask="url(#mask-6)"></path>
                </g>
                <g id="Aprendizde-Clipped" transform="translate(0.000000, -0.000900)">
                    <mask id="mask-8" fill="white">
                        <use xlink:href="#path-7"></use>
                    </mask>
                    <g id="path-3"></g>
                    <path d="M27.6672163,12.9638993 L33.3699924,12.9638993 L31.2733836,8.29545015 C31.1522454,7.99726428 31.0264503,7.6548216 30.8959938,7.26811179 C30.7655376,6.88140201 30.6350832,6.45043671 30.504627,5.97520299 C30.3928074,6.42248178 30.2740005,6.83946981 30.1482033,7.22617962 C30.0224064,7.6128894 29.8942815,7.96930935 29.7638252,8.29545015 L27.6672163,12.9638993 Z M36.8643405,21.0009 L34.5440934,15.731423 L26.4372057,15.731423 L24.061049,21.0009 L20.5667008,21.0009 L30.4766721,-0.2726916 L40.3726662,21.0009 L36.8643405,21.0009 Z M45.1652058,14.3336837 C45.1652058,15.7034751 45.5076483,16.7983599 46.1925441,17.618371 C46.8774396,18.4383821 47.7789726,18.8483815 48.8971695,18.8483815 C50.0433213,18.8483815 50.930877,18.4663366 51.5598627,17.7022354 C52.1888487,16.9381341 52.5033369,15.8525674 52.5033369,14.4455029 C52.5033369,13.0477566 52.1748714,11.9552014 51.5179305,11.1678043 C50.8609899,10.3804073 49.9594569,9.98671464 48.8133051,9.98671464 C47.6671533,9.98671464 46.7726091,10.3687596 46.1296458,11.1328608 C45.4866825,11.8969621 45.1652058,12.9638924 45.1652058,14.3336837 Z M42.2299533,27.2348171 L42.2299533,7.75033185 L45.2630475,7.75033185 L45.2630475,9.91682769 C45.6171432,9.07817994 46.1832219,8.43056721 46.9613007,7.97397012 C47.7393795,7.517373 48.6688668,7.28907789 49.7497905,7.28907789 C51.5109507,7.28907789 52.93896,7.93902015 54.0338613,9.23892414 C55.1287626,10.5388282 55.676205,12.2463825 55.676205,14.3616385 C55.676205,16.5887142 55.1380806,18.3428594 54.0618159,19.6241268 C52.9855515,20.9053942 51.5109513,21.5460183 49.6379712,21.5460183 C48.7061406,21.5460183 47.8791531,21.3596549 47.1569841,20.9869226 C46.4348151,20.6141903 45.8035092,20.045782 45.2630475,19.2816807 L45.2630475,27.2348171 L42.2299533,27.2348171 Z M62.1040995,9.86091813 C62.43024,8.98499712 62.8612053,8.33738442 63.3970083,7.91806056 C63.932811,7.49873667 64.5967305,7.28907789 65.3887866,7.28907789 C65.8174287,7.28907789 66.239076,7.34032782 66.6537405,7.44282921 C67.0684053,7.5453306 67.4760753,7.6944213 67.8767625,7.89010575 L66.7865259,10.461946 C66.5256132,10.2755798 66.2437386,10.1381369 65.9408937,10.0496129 C65.6380485,9.961089 65.300265,9.91682769 64.9275327,9.91682769 C63.9211554,9.91682769 63.1989972,10.3198385 62.7610368,11.1258722 C62.3230764,11.9319058 62.1040995,13.2853698 62.1040995,15.1863047 L62.1040995,21.0009 L59.0710053,21.0009 L59.0710053,7.72237704 L62.1040995,7.72237704 L62.1040995,9.86091813 Z M82.5513186,14.8228925 L71.956455,14.8228925 C72.0310014,16.0622275 72.399069,17.0289875 73.0606689,17.7232014 C73.7222688,18.4174154 74.6028357,18.7645172 75.7023963,18.7645172 C76.6808187,18.7645172 77.4961584,18.5595175 78.14844,18.1495119 C78.8007216,17.7395063 79.3691298,17.0779164 79.8536817,16.1647222 L82.4115447,17.5904162 C81.6660801,18.9229343 80.7435813,19.9153193 79.644021,20.5676008 C78.5444607,21.2198824 77.2538943,21.5460183 75.7722831,21.5460183 C73.6477089,21.5460183 71.9564613,20.8984056 70.6984896,19.6031607 C69.4405182,18.3079159 68.8115418,16.5793956 68.8115418,14.4175481 C68.8115418,12.3395654 69.461484,10.6320109 70.7613879,9.29483373 C72.0612921,7.95765648 73.7315736,7.28907789 75.7722831,7.28907789 C77.9061759,7.28907789 79.5694689,7.89941793 80.7622122,9.12011631 C81.9549558,10.3408147 82.5513186,12.0506986 82.5513186,14.2498194 L82.5513186,14.8228925 Z M79.4064054,12.7821932 C79.2852672,11.8317257 78.9218586,11.1072381 78.3161685,10.6087086 C77.7104787,10.1101791 76.8811617,9.86091813 75.8281929,9.86091813 C74.8311339,9.86091813 74.0297712,10.1031905 73.4240811,10.5877425 C72.8183913,11.0722945 72.3944145,11.8037708 72.1521384,12.7821932 L79.4064054,12.7821932 Z M85.8902094,21.0009 L85.8902094,7.75033185 L88.7415975,7.75033185 L88.7415975,9.91682769 C89.3472873,9.00363348 90.0601272,8.33738442 90.8801385,7.91806056 C91.7001495,7.49873667 92.6971935,7.28907789 93.8713005,7.28907789 C94.8590412,7.28907789 95.700006,7.44515721 96.3942198,7.75732053 C97.0884339,8.06948385 97.631217,8.53306275 98.0225862,9.14807109 C98.2555437,9.51148512 98.4232707,9.9354618 98.5257723,10.4200138 C98.6282736,10.9045658 98.6795235,11.7525192 98.6795235,12.9638993 L98.6795235,21.0009 L95.6184744,21.0009 L95.6184744,14.1939098 C95.6184744,12.4513862 95.4064863,11.2936037 94.9825032,10.7205278 C94.5585201,10.1474518 93.8060781,9.86091813 92.7251544,9.86091813 C92.0169627,9.86091813 91.3856568,9.99137247 90.8312175,10.2522851 C90.2767782,10.5131978 89.8411539,10.8812654 89.5243314,11.3564991 C89.3006919,11.6733216 89.1446127,12.0809915 89.0560887,12.579521 C88.9675647,13.0780505 88.9233036,13.8724243 88.9233036,14.9626664 L88.9233036,21.0009 L85.8902094,21.0009 Z M112.417594,14.3336837 C112.417594,12.9638924 112.098447,11.8969621 111.460143,11.1328608 C110.821839,10.3687596 109.929624,9.98671464 108.783472,9.98671464 C107.63732,9.98671464 106.735787,10.3804073 106.078847,11.1678043 C105.421906,11.9552014 105.093441,13.0477566 105.093441,14.4455029 C105.093441,15.8525674 105.410258,16.9381341 106.043903,17.7022354 C106.677548,18.4663366 107.572092,18.8483815 108.727563,18.8483815 C109.827123,18.8483815 110.717008,18.4360526 111.397245,17.6113823 C112.077481,16.786712 112.417594,15.6941567 112.417594,14.3336837 Z M112.33373,-0.6640584 L115.366824,-0.6640584 L115.366824,21.0009 L112.33373,21.0009 L112.33373,19.2816807 C111.793268,20.045782 111.161962,20.6141903 110.439793,20.9869226 C109.717624,21.3596549 108.890637,21.5460183 107.958806,21.5460183 C106.085826,21.5460183 104.611226,20.9053942 103.534961,19.6241268 C102.458697,18.3428594 101.920573,16.5887142 101.920573,14.3616385 C101.920573,12.2463825 102.470345,10.5388282 103.569905,9.23892414 C104.669465,7.93902015 106.104463,7.28907789 107.874942,7.28907789 C108.955865,7.28907789 109.880694,7.51504347 110.649454,7.96698141 C111.418215,8.41891938 111.979634,9.06886164 112.33373,9.91682769 L112.33373,-0.6640584 Z M119.474471,2.0196009 C119.474471,1.5070938 119.663164,1.064481 120.040556,0.6917487 C120.417947,0.3190164 120.867549,0.1326528 121.389374,0.1326528 C121.929836,0.1326528 122.379438,0.3120276 122.738193,0.6707826 C123.096947,1.0295373 123.276322,1.4791389 123.276322,2.0196009 C123.276322,2.5600629 123.094618,3.01432347 122.731204,3.38239665 C122.36779,3.75046983 121.920518,3.93450366 121.389374,3.93450366 C120.867549,3.93450366 120.417947,3.74581074 120.040556,3.36841926 C119.663164,2.9910279 119.474471,2.541426 119.474471,2.0196009 Z M119.879816,21.0009 L119.879816,7.75033185 L122.91291,7.75033185 L122.91291,21.0009 L119.879816,21.0009 Z M137.615421,21.0009 L125.301338,21.0009 L132.681401,10.4060364 L126.04214,10.4060364 L126.04214,7.75033185 L137.615421,7.75033185 L130.389109,18.3451954 L137.615421,18.3451954 L137.615421,21.0009 Z M158.801736,14.3336837 C158.801736,12.9638924 158.482588,11.8969621 157.844284,11.1328608 C157.20598,10.3687596 156.313766,9.98671464 155.167614,9.98671464 C154.021462,9.98671464 153.119929,10.3804073 152.462988,11.1678043 C151.806048,11.9552014 151.477582,13.0477566 151.477582,14.4455029 C151.477582,15.8525674 151.7944,16.9381341 152.428045,17.7022354 C153.06169,18.4663366 153.956234,18.8483815 155.111704,18.8483815 C156.211264,18.8483815 157.10115,18.4360526 157.781386,17.6113823 C158.461623,16.786712 158.801736,15.6941567 158.801736,14.3336837 Z M158.717872,-0.6640584 L161.750966,-0.6640584 L161.750966,21.0009 L158.717872,21.0009 L158.717872,19.2816807 C158.17741,20.045782 157.546104,20.6141903 156.823935,20.9869226 C156.101766,21.3596549 155.274778,21.5460183 154.342948,21.5460183 C152.469967,21.5460183 150.995368,20.9053942 149.919103,19.6241268 C148.842838,18.3428594 148.304714,16.5887142 148.304714,14.3616385 C148.304714,12.2463825 148.854486,10.5388282 149.954046,9.23892414 C151.053607,7.93902015 152.488605,7.28907789 154.259083,7.28907789 C155.340007,7.28907789 156.264835,7.51504347 157.033596,7.96698141 C157.802356,8.41891938 158.363776,9.06886164 158.717872,9.91682769 L158.717872,-0.6640584 Z M178.885543,14.8228925 L168.290679,14.8228925 C168.365226,16.0622275 168.733293,17.0289875 169.394893,17.7232014 C170.056493,18.4174154 170.93706,18.7645172 172.036621,18.7645172 C173.015043,18.7645172 173.830383,18.5595175 174.482664,18.1495119 C175.134946,17.7395063 175.703354,17.0779164 176.187906,16.1647222 L178.745769,17.5904162 C178.000304,18.9229343 177.077806,19.9153193 175.978245,20.5676008 C174.878685,21.2198824 173.588119,21.5460183 172.106507,21.5460183 C169.981933,21.5460183 168.290686,20.8984056 167.032714,19.6031607 C165.774743,18.3079159 165.145766,16.5793956 165.145766,14.4175481 C165.145766,12.3395654 165.795708,10.6320109 167.095612,9.29483373 C168.395516,7.95765648 170.065798,7.28907789 172.106507,7.28907789 C174.2404,7.28907789 175.903693,7.89941793 177.096436,9.12011631 C178.28918,10.3408147 178.885543,12.0506986 178.885543,14.2498194 L178.885543,14.8228925 Z M175.740629,12.7821932 C175.619491,11.8317257 175.256083,11.1072381 174.650393,10.6087086 C174.044703,10.1101791 173.215386,9.86091813 172.162417,9.86091813 C171.165358,9.86091813 170.363995,10.1031905 169.758305,10.5877425 C169.152616,11.0722945 168.728639,11.8037708 168.486363,12.7821932 L175.740629,12.7821932 Z" id="Aprendizde" fill="#F7B500" fill-rule="nonzero" mask="url(#mask-8)"></path>
                </g>
            </g>
        </g>
    </g>
</svg>